<svg xmlns="http://www.w3.org/2000/svg" xmlns:xlink="http://www.w3.org/1999/xlink" width="30" height="30" viewBox="0 0 30 30">
  <defs>
    <clipPath id="clip-path">
      <rect id="Rectangle_65" data-name="Rectangle 65" width="27.449" height="22.413" transform="translate(0 0)" fill="#666"/>
    </clipPath>
  </defs>
  <g id="Group_42" data-name="Group 42" transform="translate(-43 -495)">
    <g id="Group_40" data-name="Group 40" transform="translate(43 495)">
      <rect id="Rectangle_45" data-name="Rectangle 45" width="30" height="30" fill="none"/>
    </g>
    <g id="Group_41" data-name="Group 41" transform="translate(44.275 498.793)">
      <g id="Group_9" data-name="Group 9" transform="translate(0 0)" clip-path="url(#clip-path)">
        <path id="Path_7" data-name="Path 7" d="M0,10.933A2.582,2.582,0,0,1,1.213,9.426,2.35,2.35,0,0,1,2.363,9.1q4.357,0,8.715,0c.052,0,.1.009.174.016v1.732H2.5c-.741,0-.746.006-.746.745v14.1c0,.117,0,.233,0,.35a.3.3,0,0,0,.326.341c.242.011.484.012.726.012H20c.089,0,.179,0,.269-.007.306-.02.4-.111.4-.418,0-.851,0-1.7,0-2.577h1.752c0,.176,0,.352,0,.529q0,.955,0,1.91a2.38,2.38,0,0,1-2.3,2.306q-6.025,0-12.05,0H2.421A2.469,2.469,0,0,1,.055,26.411.429.429,0,0,0,0,26.322V10.933" transform="translate(0 -5.727)" fill="#666"/>
        <path id="Path_8" data-name="Path 8" d="M43.711,17.442l-1.088-1.391a7.843,7.843,0,0,0,3.088-6.056A7.976,7.976,0,0,0,43.686,4.5,7.87,7.87,0,0,0,32.7,3.38L31.623,2a9.6,9.6,0,0,1,8.952-1.5,9.062,9.062,0,0,1,6.608,7.566,9.689,9.689,0,0,1-3.472,9.369" transform="translate(-19.89 0)" fill="#666"/>
        <path id="Path_9" data-name="Path 9" d="M45.433,21.015l-1.076-1.376a3.9,3.9,0,0,0,.568-5.675A4.024,4.024,0,0,0,39.4,13.3l-1.08-1.376a5.616,5.616,0,0,1,5.043-.953,5.393,5.393,0,0,1,4.065,4.5,5.759,5.759,0,0,1-1.994,5.54" transform="translate(-24.101 -6.751)" fill="#666"/>
        <path id="Path_10" data-name="Path 10" d="M42.9,20.963a2.294,2.294,0,1,1-2.279,2.379A2.3,2.3,0,0,1,42.9,20.963" transform="translate(-25.549 -13.185)" fill="#666"/>
        <path id="Path_11" data-name="Path 11" d="M10.357,42.095c-.006-.1-.014-.174-.014-.253,0-1.335,0-2.669,0-4,0-.205.046-.282.268-.276.921.026,1.845,0,2.763.058A1.3,1.3,0,0,1,14.613,39.3a1.276,1.276,0,0,1-.82.829l.873,1.981c-.542,0-1.047,0-1.551-.007-.049,0-.114-.1-.141-.161-.171-.4-.335-.809-.5-1.215s-.164-.405-.642-.323v1.69Zm1.464-3.579c0,.27-.01.511.007.749a.224.224,0,0,0,.155.154,4.032,4.032,0,0,0,.721-.03.428.428,0,0,0,.421-.464.435.435,0,0,0-.456-.405c-.266-.019-.534,0-.848,0" transform="translate(-6.503 -23.625)" fill="#666"/>
        <path id="Path_12" data-name="Path 12" d="M41.246,42.108c-.007-.105-.017-.184-.017-.263,0-1.327,0-2.654-.006-3.981,0-.229.05-.316.3-.306.689.028,1.381,0,2.068.052a2.129,2.129,0,0,1,1.966,2.03A2.195,2.195,0,0,1,43.8,42.055a1.924,1.924,0,0,1-.345.051c-.725,0-1.451,0-2.211,0M42.7,39.836v1.046c0,.009,0,.018,0,.027-.013.134.041.186.182.2a.941.941,0,0,0,1.043-.694,1.824,1.824,0,0,0,0-1.159.9.9,0,0,0-1.013-.686c-.163.007-.217.066-.214.225.008.348,0,.7,0,1.046" transform="translate(-25.928 -23.622)" fill="#666"/>
        <path id="Path_13" data-name="Path 13" d="M25.532,42.147H24.121V37.633h3.452v1.034c-.5,0-1-.006-1.5,0-.625.009-.531-.109-.54.564,0,.06.01.121.017.215H27.1v1c-.44,0-.868.01-1.295,0-.207-.007-.285.049-.277.269.016.473,0,.946,0,1.439" transform="translate(-15.171 -23.67)" fill="#666"/>
        <path id="Path_14" data-name="Path 14" d="M36.347,37.569v4.546c-.44,0-.875.009-1.309-.012-.05,0-.132-.164-.133-.252-.01-.931-.007-1.862-.007-2.793,0-.421.006-.842,0-1.262,0-.174.059-.235.235-.23.4.011.8,0,1.215,0" transform="translate(-21.949 -23.627)" fill="#666"/>
      </g>
    </g>
  </g>
</svg>
