<svg id="icon-phone" xmlns="http://www.w3.org/2000/svg" width="17" height="17" viewBox="0 0 17 17">
  <path id="Path_17" data-name="Path 17" d="M0,0H17V17H0Z" fill="none"/>
  <path id="Path_18" data-name="Path 18" d="M5.7,8.818a11.314,11.314,0,0,0,4.922,4.922L12.269,12.1a.743.743,0,0,1,.762-.179,8.52,8.52,0,0,0,2.666.426.749.749,0,0,1,.747.747V15.7a.749.749,0,0,1-.747.747A12.7,12.7,0,0,1,3,3.747.749.749,0,0,1,3.747,3H6.361a.749.749,0,0,1,.747.747,8.485,8.485,0,0,0,.426,2.666.75.75,0,0,1-.187.762Z" transform="translate(-1.222 -1.222)" fill="#7bc7e9"/>
</svg>
