<svg xmlns="http://www.w3.org/2000/svg" width="15" height="15" viewBox="0 0 15 15">
  <g id="icon-building" transform="translate(-489 -764)">
    <g id="ビルアイコン7" transform="translate(439.037 765)">
      <path id="Path_64" data-name="Path 64" d="M52.963,0V12.285H57.2V9.32H58.47v2.965h4.236V0Zm2.965,10.591H54.658V9.32h1.271Zm0-2.542H54.658V6.778h1.271Zm0-2.542H54.658V4.236h1.271Zm0-2.542H54.658V1.695h1.271ZM58.47,8.049H57.2V6.778H58.47Zm0-2.542H57.2V4.236H58.47Zm0-2.542H57.2V1.695H58.47Zm2.542,7.625H59.741V9.32h1.271Zm0-2.542H59.741V6.778h1.271Zm0-2.542H59.741V4.236h1.271Zm0-2.542H59.741V1.695h1.271Z" fill="#63babf"/>
    </g>
    <rect id="Rectangle_135" data-name="Rectangle 135" width="15" height="15" transform="translate(489 764)" fill="none"/>
  </g>
</svg>
