<svg id="icon-drop" xmlns="http://www.w3.org/2000/svg" width="20.604" height="20.604" viewBox="0 0 20.604 20.604">
  <rect id="Rectangle_68" data-name="Rectangle 68" width="20.604" height="20.604" transform="translate(0)" fill="none"/>
  <path id="Path_19" data-name="Path 19" d="M10.3,2Q4,7.678,4,11.818c0,4.143,2.995,6.822,6.3,6.822s6.3-2.679,6.3-6.822Q16.609,7.674,10.3,2ZM7.018,11.984A.6.6,0,0,1,7.6,12.5a2.7,2.7,0,0,0,2.869,2.388.608.608,0,0,1,.623.624.615.615,0,0,1-.567.624,3.883,3.883,0,0,1-4.09-3.428A.615.615,0,0,1,7.018,11.984Z" transform="translate(-0.036 0.015)" fill="#aa6eac"/>
</svg>
