<svg xmlns="http://www.w3.org/2000/svg" width="31" height="31" viewBox="0 0 31 31">
  <g id="icon-go" transform="translate(-34 -578)">
    <circle id="Ellipse_8" data-name="Ellipse 8" cx="15.5" cy="15.5" r="15.5" transform="translate(34 578)" fill="#51a6ab"/>
    <g id="救急車のフリーアイコン5" transform="translate(40.998 525.122)">
      <path id="Path_71" data-name="Path 71" d="M58.967,337.75a2.217,2.217,0,1,0,2.217,2.217A2.217,2.217,0,0,0,58.967,337.75Zm0,3.125a.908.908,0,1,1,.908-.908A.908.908,0,0,1,58.967,340.875Z" transform="translate(-54.533 -266.179)" fill="#fff"/>
      <path id="Path_72" data-name="Path 72" d="M339.436,337.75a2.217,2.217,0,1,0,2.216,2.217A2.217,2.217,0,0,0,339.436,337.75Zm0,3.125a.908.908,0,1,1,.908-.908A.909.909,0,0,1,339.436,340.875Z" transform="translate(-324.044 -266.179)" fill="#fff"/>
      <path id="Path_73" data-name="Path 73" d="M76.637,63.277h6.484a1.263,1.263,0,0,0,0-2.527H76.637a1.263,1.263,0,0,0,0,2.527Zm2.421-2.126H80.7v1.726H79.058Z" transform="translate(-72.43)" fill="#fff"/>
      <path id="Path_74" data-name="Path 74" d="M19.281,147.386l-2.2-1a1.217,1.217,0,0,1-.443-.341l-2.92-4a1.227,1.227,0,0,0-.952-.451H2.1A1.23,1.23,0,0,0,.91,142.5l-.867,3.61a1.263,1.263,0,0,0-.043.324v4.292a1.23,1.23,0,0,0,1.23,1.23h.6a2.65,2.65,0,1,1,5.21,0h5.747a2.65,2.65,0,1,1,5.21,0h.776a1.23,1.23,0,0,0,1.23-1.23v-2.22A1.23,1.23,0,0,0,19.281,147.386Zm-12.8-1.613H5.29v1.193H4.133v-1.193H2.94v-1.157H4.132v-1.192H5.29v1.192H6.483v1.157Zm8.872.269a.205.205,0,0,1-.183.112H10.29a.41.41,0,0,1-.41-.41V142.87a.41.41,0,0,1,.41-.41h2.333a.5.5,0,0,1,.382.173l2.331,3.2A.206.206,0,0,1,15.354,146.043Z" transform="translate(0 -77.685)" fill="#fff"/>
    </g>
  </g>
</svg>
