<svg xmlns="http://www.w3.org/2000/svg" width="36" height="36" viewBox="0 0 36 36">
  <g id="icon-book" transform="translate(-38 -194)">
    <circle id="Ellipse_1" data-name="Ellipse 1" cx="18" cy="18" r="18" transform="translate(38 194)" fill="#d1efff" opacity="0.5"/>
    <g id="auto_stories_black_24dp_1_" data-name="auto_stories_black_24dp (1)" transform="translate(44 200)">
      <path id="Path_34" data-name="Path 34" d="M0,0H24V24H0Z" fill="none"/>
      <path id="Path_35" data-name="Path 35" d="M19,1,14,6V17l5-4.5ZM1,6V20.65a.538.538,0,0,0,.5.5c.1,0,.15-.05.25-.05A12.205,12.205,0,0,1,6.5,20,9.3,9.3,0,0,1,12,21.5V6A9.3,9.3,0,0,0,6.5,4.5,9.3,9.3,0,0,0,1,6ZM23,19.5V6a6.821,6.821,0,0,0-2-1V18.5a11.62,11.62,0,0,0-3.5-.5A12.045,12.045,0,0,0,12,19.5v2A12.045,12.045,0,0,1,17.5,20a10.178,10.178,0,0,1,4.75,1.05.451.451,0,0,0,.25.05.538.538,0,0,0,.5-.5V19.5Z" fill="#63babf"/>
    </g>
  </g>
</svg>
