<svg xmlns="http://www.w3.org/2000/svg" width="31" height="31" viewBox="0 0 31 31">
  <g id="icon-clean" transform="translate(-34 -485)">
    <circle id="Ellipse_6" data-name="Ellipse 6" cx="15.5" cy="15.5" r="15.5" transform="translate(34 485)" fill="#51a6ab"/>
    <g id="wash_black_24dp" transform="translate(41 489.579)">
      <rect id="Rectangle_130" data-name="Rectangle 130" width="18" height="18" transform="translate(0 0.421)" fill="none"/>
      <path id="Path_69" data-name="Path 69" d="M14.432,6.373a1.92,1.92,0,0,0,1.919-1.919C16.351,3.172,14.432,1,14.432,1s-1.919,2.172-1.919,3.454A1.92,1.92,0,0,0,14.432,6.373Zm-3.838.768a1.15,1.15,0,0,0,1.151-1.151c0-.645-1.151-1.919-1.151-1.919S9.443,5.344,9.443,5.989A1.15,1.15,0,0,0,10.594,7.14ZM7.232,4.07,1.721,9.282A2.286,2.286,0,0,0,1,10.955v4.628a2.3,2.3,0,0,0,2.3,2.3H13.856a.959.959,0,0,0,0-1.919H9.443V15.2h5.948a.959.959,0,1,0,0-1.919H9.443v-.768h6.716a.959.959,0,1,0,0-1.919H9.443V9.827h5.181a.959.959,0,1,0,0-1.919H7.033c.491-.852,1.136-1.98,1.144-2A.8.8,0,0,0,8.284,5.5a.817.817,0,0,0-.2-.537c-.008-.031-.852-.89-.852-.89Z" transform="translate(-0.232 -0.232)" fill="#fff"/>
    </g>
  </g>
</svg>
