<svg xmlns="http://www.w3.org/2000/svg" width="28" height="32" viewBox="0 0 28 32">
  <g id="icon-guard" transform="translate(-403 -846)">
    <g id="シールドアイコン5" transform="translate(406 849)">
      <path id="Path_59" data-name="Path 59" d="M44.272,3.248,38.053,0l-6.22,3.248-5.14-1.413V14.685a6.169,6.169,0,0,0,.419,2.181,10.552,10.552,0,0,0,2.144,3.312A20.084,20.084,0,0,0,33.9,23.837a15.874,15.874,0,0,0,2.236,1.086,8.2,8.2,0,0,0,.989.314,4.039,4.039,0,0,0,.933.125,4.833,4.833,0,0,0,1.439-.269A15.017,15.017,0,0,0,42.437,23.7a19.719,19.719,0,0,0,4.606-3.742,11.029,11.029,0,0,0,1.676-2.457,6.5,6.5,0,0,0,.695-2.821V1.836Zm2.869,11.437a3.9,3.9,0,0,1-.273,1.378,8.341,8.341,0,0,1-1.694,2.581,17.845,17.845,0,0,1-4.1,3.227,13.664,13.664,0,0,1-1.909.93,5.97,5.97,0,0,1-.712.228,1.874,1.874,0,0,1-.4.062,2.821,2.821,0,0,1-.744-.16,12.866,12.866,0,0,1-2.478-1.178,17.5,17.5,0,0,1-4.063-3.291,8.786,8.786,0,0,1-1.334-1.944,4.231,4.231,0,0,1-.469-1.833V4.816l3.128.859,5.96-3.113,5.959,3.113.431-.118,2.7-.741Z" transform="translate(-26.693)" fill="#fff"/>
      <path id="Path_60" data-name="Path 60" d="M125.232,103.69l-5.253,2.743L118.416,106v7.075c0,2.408,5.111,5.9,6.816,6.188,1.706-.288,6.816-3.78,6.816-6.188V106l-1.564.429Z" transform="translate(-113.872 -98.554)" fill="#fff"/>
    </g>
    <rect id="Rectangle_137" data-name="Rectangle 137" width="28" height="32" transform="translate(403 846)" fill="none"/>
  </g>
</svg>
