<svg xmlns="http://www.w3.org/2000/svg" width="28" height="32" viewBox="0 0 28 32">
  <g id="icon-element" transform="translate(-407 -616)">
    <g id="フラスコのアイコン1" transform="translate(326.854 616)">
      <path id="Path_54" data-name="Path 54" d="M104.282,152.92l-5.829-9.306a4.94,4.94,0,0,1-.753-2.621l.008-6.946-7.473-.008-.008,6.941a4.944,4.944,0,0,1-.758,2.624L83.62,152.9a3.091,3.091,0,0,0,2.616,4.737l15.421.016h0c.042,0,.063,0,.063,0v0a3.093,3.093,0,0,0,2.645-1.588h0a3.092,3.092,0,0,0-.084-3.138Zm-1.495,2.265a1.286,1.286,0,0,1-1.127.663h-.009l-15.414-.017a1.289,1.289,0,0,1-1.09-1.974L91,144.564a6.745,6.745,0,0,0,1.036-3.584l.005-5.137,3.865,0-.006,5.138v.007a6.743,6.743,0,0,0,1.028,3.578l5.828,9.306a1.285,1.285,0,0,1,.035,1.309Z" transform="translate(0 -125.651)" fill="#fff"/>
      <path id="Path_55" data-name="Path 55" d="M254.5,2.924a1.462,1.462,0,1,0-1.46-1.463A1.462,1.462,0,0,0,254.5,2.924Z" transform="translate(-159.279 0)" fill="#fff"/>
      <path id="Path_56" data-name="Path 56" d="M237.322,88.264a.86.86,0,1,0-.859-.86A.858.858,0,0,0,237.322,88.264Z" transform="translate(-143.736 -81.135)" fill="#fff"/>
      <path id="Path_57" data-name="Path 57" d="M279.149,61.6a1.028,1.028,0,1,0,1.03-1.025A1.029,1.029,0,0,0,279.149,61.6Z" transform="translate(-183.754 -56.784)" fill="#fff"/>
      <path id="Path_58" data-name="Path 58" d="M151.354,346.415a.363.363,0,0,0-.308-.172l-5.6-.006a.363.363,0,0,0-.309.171l-4.02,6.4a.367.367,0,0,0-.01.372.363.363,0,0,0,.319.189l13.63.015a.364.364,0,0,0,.309-.559Zm-4.435,3.329a.967.967,0,1,1,.966-.967A.966.966,0,0,1,146.919,349.743Zm3.09,2.128a.645.645,0,1,1,.644-.644A.644.644,0,0,1,150.009,351.871Z" transform="translate(-54.286 -324.61)" fill="#fff"/>
    </g>
    <rect id="Rectangle_135" data-name="Rectangle 135" width="28" height="32" transform="translate(407 616)" fill="none"/>
  </g>
</svg>
