<svg xmlns="http://www.w3.org/2000/svg" width="15" height="15" viewBox="0 0 15 15">
  <g id="icon-locate" transform="translate(-489 -788)">
    <g id="location_on_black_24dp_1_" data-name="location_on_black_24dp (1)" transform="translate(488.5 787.5)">
      <path id="Path_62" data-name="Path 62" d="M0,0H15V15H0Z" transform="translate(0.5 0.5)" fill="none"/>
      <path id="Path_63" data-name="Path 63" d="M9.375,2A4.372,4.372,0,0,0,5,6.375C5,9.656,9.375,14.5,9.375,14.5S13.75,9.656,13.75,6.375A4.372,4.372,0,0,0,9.375,2Zm0,5.938a1.563,1.563,0,1,1,1.563-1.562A1.563,1.563,0,0,1,9.375,7.938Z" transform="translate(-1.5 -0.5)" fill="#63babf"/>
    </g>
    <rect id="Rectangle_136" data-name="Rectangle 136" width="15" height="15" transform="translate(489 788)" fill="none"/>
  </g>
</svg>
