<svg id="icon-qrcode" xmlns="http://www.w3.org/2000/svg" width="28" height="28" viewBox="0 0 28 28">
  <rect id="Rectangle_79" data-name="Rectangle 79" width="28" height="28" fill="none"/>
  <path id="Path_26" data-name="Path 26" d="M10.625,7.175v3.45H7.175V7.175h3.45M12.35,5.45H5.45v6.9h6.9V5.45ZM10.625,16.375v3.45H7.175v-3.45h3.45M12.35,14.65H5.45v6.9h6.9v-6.9Zm7.475-7.475v3.45h-3.45V7.175h3.45M21.55,5.45h-6.9v6.9h6.9V5.45Zm-6.9,9.2h1.725v1.725H14.65Zm1.725,1.725H18.1V18.1H16.375ZM18.1,14.65h1.725v1.725H18.1ZM14.65,18.1h1.725v1.725H14.65Zm1.725,1.725H18.1V21.55H16.375ZM18.1,18.1h1.725v1.725H18.1Zm1.725-1.725H21.55V18.1H19.825Zm0,3.45H21.55V21.55H19.825ZM25,7.75H22.7V4.3H19.25V2H25ZM25,25V19.25H22.7V22.7H19.25V25ZM2,25H7.75V22.7H4.3V19.25H2ZM2,2V7.75H4.3V4.3H7.75V2Z" transform="translate(0.5 0.5)" fill="#fff"/>
</svg>
