<svg xmlns="http://www.w3.org/2000/svg" width="31" height="31" viewBox="0 0 31 31">
  <g id="icon-cover" transform="translate(-204 -485)">
    <circle id="Ellipse_7" data-name="Ellipse 7" cx="15.5" cy="15.5" r="15.5" transform="translate(204 485)" fill="#51a6ab"/>
    <g id="洗濯指数ピクトグラム2" transform="matrix(0.891, 0.454, -0.454, 0.891, 222.157, 477.117)">
      <path id="Path_70" data-name="Path 70" d="M15.364,17.854a5.207,5.207,0,0,0-4.54-3.332,2.416,2.416,0,0,1-4.831,0c-2.758.306-3.454,1.249-4.126,3.336v0A7.966,7.966,0,0,1,0,21.671l3.009,1.15.848-1.338c-.013.69-.25,3.323-2.888,6.812a18.484,18.484,0,0,0,10.825,1.587,35.547,35.547,0,0,0,1.467-8.355l.448,2.04,2.863-.254A18.845,18.845,0,0,0,15.364,17.854Z" transform="translate(0 0)" fill="#fff"/>
    </g>
  </g>
</svg>
