<svg xmlns="http://www.w3.org/2000/svg" xmlns:xlink="http://www.w3.org/1999/xlink" width="31" height="31" viewBox="0 0 31 31">
  <defs>
    <clipPath id="clip-path">
      <rect id="Rectangle_129" data-name="Rectangle 129" width="22.058" height="21" transform="translate(0 0)" fill="none"/>
    </clipPath>
  </defs>
  <g id="icon-takeoff" transform="translate(-204 -392)">
    <circle id="Ellipse_5" data-name="Ellipse 5" cx="15.5" cy="15.5" r="15.5" transform="translate(204 392)" fill="#51a6ab"/>
    <g id="Group_38" data-name="Group 38" transform="translate(208.471 396)">
      <g id="Group_37" data-name="Group 37" transform="translate(0 0)" clip-path="url(#clip-path)">
        <path id="Path_65" data-name="Path 65" d="M18.814,26.105c-.293,1.185-.607,2.365-.868,3.556-.095.43-.25.584-.707.549-.676-.051-1.359-.013-2.08-.013-.017.206-.034.419-.055.675H8.2l-.075-.619c-.507,0-1.007-.024-1.5.007-.423.026-.612-.123-.668-.55-.236-1.8-.5-3.6-.739-5.407-.043-.336-.142-.52-.5-.594a2.314,2.314,0,0,1-.711-.347c-1-.631-2-1.272-2.99-1.912-.57-.366-.569-.367-.383-.929a6.145,6.145,0,0,1-.578-.973,1.021,1.021,0,0,1,.439-1.2.922.922,0,0,1,.578-.169c.436.093.865-.25,1.333.146a25.873,25.873,0,0,0,2.347,1.606c.108-.187.21-.343.292-.508.316-.636.457-.673,1.051-.241.108-.23.223-.451.319-.68a4.238,4.238,0,0,1,3.22-2.58,8.233,8.233,0,0,1,4.169.11A3.5,3.5,0,0,1,15.95,17.71c.311.554.61,1.115.843,1.544a3.282,3.282,0,0,1,.822.367c1.109,1,2.207,2.014,3.283,3.051a4.171,4.171,0,0,1,1.158,3.119c.013,1.168-.035,2.337-.037,3.505,0,.39-.143.5-.515.4-.714-.189-1.431-.37-2.153-.53a.472.472,0,0,1-.421-.557c.015-.826,0-1.653,0-2.479l-.121-.026m2.76,3.1c0-1.2.01-2.341,0-3.477a3.978,3.978,0,0,0-1.386-3.1c-.851-.746-1.659-1.539-2.521-2.344A54.745,54.745,0,0,1,15.6,29.724c.432,0,.795,0,1.158,0,.825-.01.62.081.812-.659.309-1.187.608-2.376.927-3.561.037-.138.172-.344.27-.349a.545.545,0,0,1,.425.229,1.729,1.729,0,0,1,.223.743c.027.739.013,1.479,0,2.218,0,.221.041.357.285.411.59.129,1.174.281,1.871.451M1.032,20.88c1.207.773,2.372,1.527,3.547,2.264a1.288,1.288,0,0,0,.583.19c.336.02.452.176.488.494.114,1.013.244,2.024.384,3.033.133.961.286,1.919.435,2.9H7.887c-.029-.124-.051-.208-.068-.293-.544-2.693-1.571-5.3-1.385-8.126A2.459,2.459,0,0,0,5.6,19.475c-.079.137-.147.247-.207.361-.406.765-.461.785-1.18.317-.742-.483-1.475-.979-2.252-1.5L1.032,20.88m15.58,2.7a.652.652,0,0,0-.162-.889c-.271-.25-.5-.548-.766-.8a1.733,1.733,0,0,0-.433-.223,1.64,1.64,0,0,0-.148.469c-.007,2.337,0,4.674,0,7.01a1.474,1.474,0,0,0,.022.179c.876-2.192.228-4.489.523-6.765l.962,1.019M8.153,28.552c0-.513.006-.911,0-1.308-.028-1.7-.054-3.4-.1-5.094a1.454,1.454,0,0,0-.21-.482,1.846,1.846,0,0,0-.392.357,3.923,3.923,0,0,0-.438.916,4.154,4.154,0,0,0-.067.881l.145.011.428-.806c.2,1.831-.1,3.668.634,5.524" transform="translate(0 -9.873)" fill="#fff"/>
        <path id="Path_66" data-name="Path 66" d="M28.289,2.558a2.476,2.476,0,1,1-4.952-.013,2.477,2.477,0,1,1,4.952.013" transform="translate(-14.667 0)" fill="#fff"/>
      </g>
    </g>
  </g>
</svg>
