<svg xmlns="http://www.w3.org/2000/svg" width="23" height="23" viewBox="0 0 23 23">
  <g id="menu-icon4" transform="translate(0.147)">
    <path id="Path_24" data-name="Path 24" d="M0,0H23V23H0Z" transform="translate(-0.147)" fill="none"/>
    <path id="Path_25" data-name="Path 25" d="M18.242,14.207a10.185,10.185,0,0,1-3.2-.511.915.915,0,0,0-.915.215l-1.972,1.972A13.489,13.489,0,0,1,6.246,9.975L8.218,7.994a.861.861,0,0,0,.224-.9,10.185,10.185,0,0,1-.511-3.2.9.9,0,0,0-.9-.9H3.9a.9.9,0,0,0-.9.9A15.24,15.24,0,0,0,18.242,19.138a.9.9,0,0,0,.9-.9V15.1A.9.9,0,0,0,18.242,14.207Zm-.9-3.138h1.793A8.07,8.07,0,0,0,11.069,3V4.793A6.271,6.271,0,0,1,17.345,11.069Zm-3.586,0h1.793a4.484,4.484,0,0,0-4.483-4.483V8.379A2.686,2.686,0,0,1,13.759,11.069Z" transform="translate(0.853 0)" fill="#999"/>
  </g>
</svg>
