<svg xmlns="http://www.w3.org/2000/svg" xmlns:xlink="http://www.w3.org/1999/xlink" width="251.919" height="116.425" viewBox="0 0 251.919 116.425">
  <defs>
    <filter id="Path_127" x="0" y="74.375" width="251.919" height="42.05" filterUnits="userSpaceOnUse">
      <feOffset input="SourceAlpha"/>
      <feGaussianBlur stdDeviation="3" result="blur"/>
      <feFlood flood-opacity="0.2"/>
      <feComposite operator="in" in2="blur"/>
      <feComposite in="SourceGraphic"/>
    </filter>
    <clipPath id="clip-path">
      <rect id="Rectangle_135" data-name="Rectangle 135" width="63.954" height="64" fill="none"/>
    </clipPath>
    <clipPath id="clip-path-2">
      <rect id="Rectangle_137" data-name="Rectangle 137" width="64" height="64" fill="none"/>
    </clipPath>
  </defs>
  <g id="title" transform="translate(-54.525 -41)">
    <g transform="matrix(1, 0, 0, 1, 54.53, 41)" filter="url(#Path_127)">
      <path id="Path_127-2" data-name="Path 127" d="M.775-7.425A22.456,22.456,0,0,0,4.2-10.15V2.375h.675A4.344,4.344,0,0,0,7.825,1.35V-13.225c.5-.1.7-.275.775-.5L7.425-14.15a31.267,31.267,0,0,0,2.625-5.175c.6.025.925-.2,1.025-.525l-5-1.55A40.137,40.137,0,0,1,.525-7.6Zm22.5,1.9h-.25A16.11,16.11,0,0,1,21.55-2.15a1.284,1.284,0,0,1-.925.375c-.45.05-1.2.05-2.05.05h-2.65c-1.025,0-1.4-.2-1.4-.925V-11.6h8.7c.375,0,.625-.125.7-.4C22.9-13.025,21.1-14.55,21.1-14.55L19.525-12.3h-5v-7.475c.65-.075.875-.375.9-.7l-4.3-.45V-1.7c0,2.675,1.175,3.225,4.275,3.225h2.85c5.075,0,6.475-.575,6.475-2.125,0-.625-.325-1.025-1.35-1.45ZM33.7-16.9h-.1l-.05-1.925a25.181,25.181,0,0,0,2.925-.575.981.981,0,0,0,.35.075c.325.2.65.45,1,.7A15.692,15.692,0,0,1,36.15-16.9c-.65-.6-1.475-1.25-1.475-1.25Zm12.4,5.875c-.2.775-.425,1.725-.6,2.35l.175.15c1.175-.425,3-1.25,4.1-1.775a1.256,1.256,0,0,0,.95-.3L47.75-13.45l-1.025,1,.225-5.975a1.267,1.267,0,0,0,.9-.4l-3.05-2.25-1.25,1.5h-2l.225.7h2L43.7-16.9H41.825l.225.7h1.625L43.6-14.25H41.7l.225.7H43.55l-.05,1.825H33.725l-.05-1.825H35.9c.325,0,.575-.125.625-.4-.675-.7-1.8-1.625-1.8-1.625l-1,1.325H33.65l-.025-1.95H35.85c.325,0,.525-.1.6-.325a16.719,16.719,0,0,0,2.4-1.225,7.234,7.234,0,0,1,.75.825c1.3.375,1.975-1,.8-1.975a6.133,6.133,0,0,0,.8-.825c.45.1.7.05.825-.175l-2.6-1.325a10.892,10.892,0,0,1-.85,1.55,7.033,7.033,0,0,0-1.7-.125l-2.15-1.6a21.6,21.6,0,0,1-1.8,1.675L30.4-20.15l.2,8.425h-.05a8.56,8.56,0,0,0-.85-1.925l-.275.025a2.473,2.473,0,0,1-1.275,2.55c-2.425,1.225-1.025,4.15,1.15,3.3,1.275-.5,1.7-1.725,1.425-3.25Zm-6.35-5.75a8.107,8.107,0,0,1-.9,1.525,8.33,8.33,0,0,0-2.1-.25l-.225.225a10.877,10.877,0,0,1,1.45,1.125,12.049,12.049,0,0,1-2.325,1.925l.2.35a13.118,13.118,0,0,0,3.125-1.3,6.613,6.613,0,0,1,.675.925c1.4.525,2.2-.975,1-2.1a7.989,7.989,0,0,0,.9-.975c.425.1.7.05.825-.2ZM45.025-4.55h-4.45v-1.1c.5-.075.75-.25.825-.6,1.375-.4,2.75-.875,3.8-1.25a1.286,1.286,0,0,0,1-.325L43.1-10.55,41.225-8.775H32.35l.225.7H40.95c-.425.5-.925,1.1-1.425,1.65l-2.475-.2V-4.55h-9.5l.2.7h9.3v2.025c0,.275-.125.375-.45.375-.55,0-3.425-.175-3.425-.175V-1.3a3.479,3.479,0,0,1,2.35,1.15,4.841,4.841,0,0,1,.65,2.5c3.875-.35,4.4-1.625,4.4-4v-2.2h8.6c.375,0,.65-.125.725-.4-1.15-1.075-3.125-2.7-3.125-2.7ZM68.1-18.7v5.625H61.85V-18.7Zm-6.25,6.325H68.1v2.125h.625a5.386,5.386,0,0,0,3-.95v-6.925a1.617,1.617,0,0,0,1-.55L69.45-21.15l-1.6,1.75H62l-3.775-1.45V-9.975h.525c1.5,0,3.1-.8,3.1-1.125Zm-4.025,11.1V-7.85h2.75v6.575Zm2.5-7.275H57.95L54.4-9.925V2.1h.5c1.45,0,2.925-.775,2.925-1.1V-.575h2.75V1.65h.6A5.021,5.021,0,0,0,64.05.7v-8a1.535,1.535,0,0,0,.975-.525l-3.15-2.425ZM69.25-1.275V-7.85H72.2v6.575Zm4.275-9L71.95-8.55H69.375l-3.55-1.375V2.1h.5c1.45,0,2.925-.775,2.925-1.1V-.575H72.2V1.75h.6a5.985,5.985,0,0,0,2.95-.8V-7.275a1.746,1.746,0,0,0,1-.55ZM85.175-14.3h2.45c.35,0,.6-.125.65-.4-.75-.925-2.2-2.35-2.2-2.35l-.9,1.45v-4.725c.675-.1.875-.35.925-.7l-4.05-.4V-15H79.375l.2.7H81.75a34.266,34.266,0,0,1-2.5,10.45l.325.275A20.41,20.41,0,0,0,82.05-6.75V2.375h.6c1.175,0,2.525-.775,2.525-1.1v-13.55A7.8,7.8,0,0,1,85.65-8.95c1.9,2,4.65-1.95-.475-4.125ZM97.15-4.225A14.021,14.021,0,0,1,99.9.925c3.175,2.1,5.65-4.025-2.55-5.3Zm.7-7.475v-3.8h.875v3.8Zm-6.525-3.8h.825v3.8h-.825Zm4.125,0v3.8h-.875v-3.8Zm-.875-3.225h.875V-16.2h-.875ZM101.75-15a1.775,1.775,0,0,0,1.025-.525L99.825-17.7l-1.35,1.5H97.85v-2.525h4.65c.375,0,.65-.125.7-.4-1.1-1-2.975-2.45-2.975-2.45l-1.65,2.15H87.525l.2.7H92.15V-16.2h-.675l-3.05-1.2v8.1h.4c1.2,0,2.5-.625,2.5-.875V-11h7.4v.725L97.525-8.9h-8.7l.2.7h12.45c.35,0,.625-.125.7-.4-.65-.5-1.5-1.125-2.125-1.575a4.833,4.833,0,0,0,1.7-.55ZM98.525-6.15H87.475l.2.7h5.7V-3.3L89.75-5.125a17.618,17.618,0,0,1-3.1,6.45l.225.25a15.087,15.087,0,0,0,5.7-4.45,1.018,1.018,0,0,0,.8-.15v5.25h.65A4.792,4.792,0,0,0,96.85,1.6V-5.45h5.675c.35,0,.625-.125.7-.4-1.15-.975-3.05-2.35-3.05-2.35ZM117.25-18.225a1.036,1.036,0,0,0,.4-.075,13.307,13.307,0,0,1-1.25,2.1l.25.225a11.96,11.96,0,0,0,3.975-2.25H128.2c.35,0,.6-.125.675-.4-1.025-.925-2.75-2.25-2.75-2.25l-1.525,1.95h-3.275c.2-.2.35-.4.525-.6.575.05.9-.125,1.025-.425L118.8-21.625a17.172,17.172,0,0,1-.975,2.9c-.925-.875-2.4-2.1-2.4-2.1l-1.375,1.9h-2.525a9.043,9.043,0,0,0,.55-.8c.575,0,.9-.225,1-.525l-4.15-1.275A18.1,18.1,0,0,1,105.75-14.8l.25.225a13.689,13.689,0,0,0,4.975-3.65Zm3.775.55a3.42,3.42,0,0,1,.85,2.175c2.35,1.725,5.025-2.575-.65-2.3Zm-13.5,7.1a8.346,8.346,0,0,0,3.6-2.275,3.7,3.7,0,0,1,.4,1.425c1.75,1.325,3.625-1.575.4-2.425.125-.2.225-.4.35-.6a.862.862,0,0,0,.975-.475l-3.475-1.2a10.044,10.044,0,0,1-2.525,5.3Zm4.225-7.175a3.658,3.658,0,0,1,.75,2.1c2.175,1.65,4.8-2.275-.55-2.225Zm3.775,1.625a10.844,10.844,0,0,1-2.35,5.275l.275.25a8.616,8.616,0,0,0,3.4-2.25,4.478,4.478,0,0,1,1.05,1.975c2,1.2,3.525-2.35-.475-2.675.2-.3.4-.6.575-.925.55.025.875-.175.975-.475Zm1.85,8.175h-.325V-9.8h3.325c.075.725.15,1.45.275,2.15-.8-.725-2.125-1.725-2.125-1.725ZM113.2-1.45V-9.8h.975v8.3Zm11.5-9.05h-1.35c-.075-1.225-.1-2.475-.1-3.775a1.215,1.215,0,0,0,.675-.3,4.664,4.664,0,0,1,.45,2.575,1.858,1.858,0,0,0,1.075.55Zm4.25,6.175-.25-.05a27.3,27.3,0,0,1-1.25,2.65c-.2.35-.375.35-.7.1A7.705,7.705,0,0,1,125.375-3.1a17.91,17.91,0,0,0,2.575-4.55c.575.05.9-.15,1.025-.45l-3.85-1.425a19.765,19.765,0,0,1-1.1,3.375A22.645,22.645,0,0,1,123.4-9.8h4.875c.375,0,.625-.125.7-.4-.675-.625-1.675-1.425-2.25-1.875.5-.8.1-2.175-2.625-2.85v-.05l-3.975-.35c.025,1.675.075,3.275.175,4.825H106.65l.2.7h3.5v1.825H107.5l.225.7h2.625v1.55h-2.675l.225.7h2.45v1.7h-2.9l.225.7h2.675v1.3c-1.5.075-2.725.1-3.575.125l1.675,3.625a1.064,1.064,0,0,0,.75-.575c5.6-1.425,9.175-2.475,11.6-3.375l-.025-.325c-1.275.075-2.525.15-3.725.2v-.925h3.425c.35,0,.575-.125.65-.4C120.3-3.7,119-4.7,119-4.7l-1.15,1.425h-.8V-5h3.2a.6.6,0,0,0,.65-.4c-.825-.725-2.125-1.725-2.125-1.725L117.625-5.7h-.575V-7.25H120c.35,0,.6-.125.65-.375a18.647,18.647,0,0,0,1.45,4.9,16.991,16.991,0,0,1-5.2,4.75l.2.275a17.687,17.687,0,0,0,6.1-3.15,11.42,11.42,0,0,0,2,2.125c1.025.775,2.9,1.6,3.9.4.375-.5.25-1.175-.55-2.45ZM143.55-17.6c.35,0,.6-.125.675-.4-.95-.9-2.55-2.225-2.55-2.225l-1.4,1.925H138.1c.275-.4.575-.8.825-1.25.6,0,.925-.225,1.025-.55l-4.575-1.425a21.765,21.765,0,0,1-3.75,8.025l.25.2a15.171,15.171,0,0,0,5.675-4.3Zm-6.45.725a5.607,5.607,0,0,1,.975,2.825c2.325,1.875,5.15-2.475-.775-2.95ZM140.4-6.75V-9.075h6.275V-6.75Zm7.775,3.675v2.75H140.4v-2.75Zm2.425-9.4h-6.65c2.075-.225,3.125-3.4-2.325-3.075l-.15.125a4.207,4.207,0,0,1,.8,2.45,2.558,2.558,0,0,0,1.225.5h-7.775a10.309,10.309,0,0,0-.775-1.875l-.3.025a3.765,3.765,0,0,1-1.15,3.3,1.852,1.852,0,0,0-1.125,2.275,1.7,1.7,0,0,0,2.575.725c.825-.575,1.325-1.925.95-3.75h14.95c-.05.75-.125,1.675-.2,2.375l-2.7-1.95-1.5,1.575h-6.025L136.8-11.1V2.375h.675c1.85,0,2.925-.8,2.925-1.025V.375h7.775v1.85h.65A6.381,6.381,0,0,0,151.8,1.45v-4.1a1.464,1.464,0,0,0,.775-.425l-3.125-2.3-1.5,1.6H140.4V-6.05h6.275v.925h.65A6.711,6.711,0,0,0,150.3-5.9V-8.65a1.464,1.464,0,0,0,.775-.425,16.243,16.243,0,0,0,3.15-2.025c.525-.025.775-.1.975-.325l-2.925-2.75Zm-3.55-4.4a4.516,4.516,0,0,1,1.075,2.775c2.5,1.9,5.3-2.775-.875-2.9Zm4.3-1.425h-3.625a10.7,10.7,0,0,0,1-1.1c.575.025.925-.15,1.05-.475l-4.4-1.7a16.074,16.074,0,0,1-2.225,5.6l.225.225A12.888,12.888,0,0,0,146.9-17.6h8.125c.375,0,.625-.125.7-.4-1.05-.95-2.825-2.3-2.825-2.3Zm19.2,9.2v-4.4h1.575v4.4Zm-6.5-3.05v-5.9h3.025v6.125c-.8-.95-1.925-2.075-1.925-2.075Zm8.075-6.45v4.4H170.55v-4.4Zm5.175,0v4.4h-1.65v-4.4Zm-1.65,9.5v-4.4h1.65v4.4Zm1.8,9.875h-1.8v-4.5h5.025c.375,0,.65-.125.7-.4C180.325-5.2,178.45-6.8,178.45-6.8L176.8-4.425h-1.15V-8.4h1.65v1.1h.6a4.891,4.891,0,0,0,2.95-1.025v-9.7a1.751,1.751,0,0,0,.975-.55L178.65-21.05l-1.6,1.75h-6.325l-3.65-1.425V-19.3c-1-.9-2.075-1.8-2.075-1.8l-1.675,2.35H158l.2.7h2.35v6.275h-2.5l.2.7h2.3v6.9c-1.2.275-2.2.5-2.8.625L159.325.4A1.147,1.147,0,0,0,160-.325a69.279,69.279,0,0,0,7.4-5.4l-.075-.225c-1.1.3-2.2.6-3.275.875v-6h2.75a.937.937,0,0,0,.275-.025v4.375h.525c1.475,0,2.95-.8,2.95-1.15V-8.4h1.575v3.975h-5.2l.2.7h5v4.5h-7.35l.2.7h16.7c.35,0,.65-.125.7-.4-1.125-1.15-3.15-2.9-3.15-2.9Zm23.7-12.225a12.153,12.153,0,0,1,1.325,2.875c-4.325.15-8.45.275-11.35.325a54.382,54.382,0,0,0,12.05-4.825c.6.175,1.025.025,1.175-.225l-3.725-2.625a17.625,17.625,0,0,1-2.65,2.3c-2.275.15-4.45.275-6.225.375a32.291,32.291,0,0,0,6.475-2.475c.55.125.875-.025,1-.275L196.4-17.6c1.5-.35,2.875-.725,4-1.1.825.25,1.375.2,1.65-.075l-3.3-2.7a59.432,59.432,0,0,1-12.2,5.25l.075.325c2.7-.3,5.6-.8,8.25-1.35a17.611,17.611,0,0,1-6.05,3.775,5.286,5.286,0,0,1-.95.2L189.4-9.9a1.472,1.472,0,0,0,.5-.4c2.075-.55,3.95-1.1,5.6-1.625a27.266,27.266,0,0,1-6.85,3.275,8.612,8.612,0,0,1-1.275.25l1.65,3.675a1.419,1.419,0,0,0,.65-.575l1.05-.2a21.265,21.265,0,0,1-5.9,6.375L185,1.15A22.633,22.633,0,0,0,193.6-3c.575.1.8-.05.95-.275l-3.6-2.25c1.325-.25,2.575-.475,3.75-.725v4.825c0,.25-.1.4-.425.4-.5,0-2.5-.125-2.5-.125v.3a2.548,2.548,0,0,1,1.9,1,4.606,4.606,0,0,1,.45,2.25c3.775-.25,4.325-1.525,4.325-3.75V-7c1.625-.35,3.025-.675,4.2-.95a8.891,8.891,0,0,1,.3,2.125c2.95,2.6,6.1-3.45-1.575-5.75Zm-1.925,6.225a24.649,24.649,0,0,1,5.15,6.1c3.75,1.75,5.45-5.4-4.975-6.275ZM212-4.75a1.529,1.529,0,0,0,.7-.525c2.125-.85,4-1.725,5.35-2.4a5.765,5.765,0,0,1,.15,1.3c2.2,2.05,4.925-2.275-.875-4.35l-.25.125a13.327,13.327,0,0,1,.775,2.075c-1.6.1-3.15.2-4.4.275a32.492,32.492,0,0,0,6.75-5.775c.5.125.825-.025.95-.25l-3.5-2.4a15.388,15.388,0,0,1-1.2,2.425c-1.275.025-2.5.025-3.5.025A26.82,26.82,0,0,0,217.825-19c.45.025.75-.125.85-.35l-3.925-1.975c-.4,1.95-1.95,5.575-3.1,6.675a3.465,3.465,0,0,1-.825.325l1.45,3.4a1.35,1.35,0,0,0,.65-.6c.9-.375,1.75-.775,2.5-1.125a16.348,16.348,0,0,1-3.625,4.1,3.872,3.872,0,0,1-.975.35Zm5.425-.725a6.232,6.232,0,0,1,.95,3.3c2.075,1.875,4.775-2.175-.7-3.425Zm-4.5.55a4.1,4.1,0,0,1-1.175,3,1.83,1.83,0,0,0-.825,2.35,1.669,1.669,0,0,0,2.65.4c.8-1.05.825-3.075-.325-5.75Zm1.95-.225a11.686,11.686,0,0,1,0,4.375c1.875,2.425,5.25-1.45.3-4.45Zm18.6.325H233.2a22.033,22.033,0,0,1-1.075,3.175.5.5,0,0,1-.475.275,2.879,2.879,0,0,1-.5.025h-.525c-.325,0-.375-.125-.375-.45v-9.325l.55-.175a12.3,12.3,0,0,1,.575,2.025c3.15,2.4,5.875-4-2.525-6.05l-.225.15a16.65,16.65,0,0,1,1.875,3.15c-3.325.1-6.425.15-8.6.175a33.817,33.817,0,0,0,4.9-4.925h6.925c.35,0,.625-.125.7-.4-1.125-1.025-3-2.55-3-2.55l-1.675,2.25h-2.4a17.329,17.329,0,0,0,1.275-1.8.871.871,0,0,0,.925-.45l-4.525-1.9a23.448,23.448,0,0,1-1.425,4.15h-3.725l.2.7h3.2a17.685,17.685,0,0,1-2.775,4.5,3.4,3.4,0,0,1-1.05.425l1.675,3.95a1.806,1.806,0,0,0,.85-.875l.675-.175c-.125,3.875-.85,7.675-5.875,11.025l.25.325c7.75-3,8.825-7.475,9.175-12.3l.775-.225V-1c0,1.975.325,2.625,2.5,2.625h1.275c2.7,0,3.675-.6,3.675-1.775a1.28,1.28,0,0,0-.875-1.325Z" transform="translate(8.47 105)" fill="#fff"/>
    </g>
    <g id="Group_40" data-name="Group 40" transform="translate(116.046 41)">
      <g id="Group_40-2" data-name="Group 40" clip-path="url(#clip-path)">
        <path id="Path_84" data-name="Path 84" d="M31.98,31.981,2.5,44.346A32.3,32.3,0,0,1,.033,33.4Q0,32.691,0,31.981a31.977,31.977,0,1,1,63.954,0,34.481,34.481,0,0,1-.879,7.244Z" transform="translate(0 -0.001)" fill="#467cb4" fill-rule="evenodd"/>
        <path id="Path_85" data-name="Path 85" d="M49,301.1l11.381,14.758,14.751-3.114A32.036,32.036,0,0,1,13.247,315l25.923.715Z" transform="translate(-12.041 -273.687)" fill="#9bc353" fill-rule="evenodd"/>
        <path id="Path_86" data-name="Path 86" d="M.348,171.747l10.9-.054q6.323-9.47,12.633-18.947a1.658,1.658,0,0,1,1.947-.629l3.317,3.527L15.985,174.066.439,174.023Z" transform="translate(-0.316 -138.165)" fill="#fff" fill-rule="evenodd"/>
        <path id="Path_87" data-name="Path 87" d="M9.215,205.323H30.306l15.689-23.307,16.18,23.307h8.877l-.472,1.265H60.267L46,185.976,31.611,206.91l-22-.157Z" transform="translate(-8.376 -165.443)" fill="#9bc353" fill-rule="evenodd"/>
        <path id="Path_88" data-name="Path 88" d="M13.575,246.69l-.328-1,21.976-.1,14.482-20.73,14.318,20.691H74.6l-.9,2.419H59.185L49.128,233.753l-8.838,13.9-26.4.009Z" transform="translate(-12.041 -204.382)" fill="#fff" fill-rule="evenodd"/>
        <path id="Path_89" data-name="Path 89" d="M5.7,124.317l-.216-1.154-.137-1.32,16.5.075,18.94-28.427a1.837,1.837,0,0,1,1.639-.583,2.361,2.361,0,0,1,1.521.846L63.615,122.18h4.694l-.5,2.137-9.119-.033L42.367,101.279,26.9,124.441Z" transform="translate(-4.86 -84.437)" fill="#fff" fill-rule="evenodd"/>
      </g>
    </g>
    <g id="Group_41" data-name="Group 41" transform="translate(185 41)">
      <g id="Group_42" data-name="Group 42" clip-path="url(#clip-path-2)">
        <path id="Path_90" data-name="Path 90" d="M64,32A32,32,0,1,1,32,0,32,32,0,0,1,64,32" fill="#fff"/>
        <path id="Path_91" data-name="Path 91" d="M73.862,43.307A30.553,30.553,0,1,1,43.309,12.754,30.553,30.553,0,0,1,73.862,43.307" transform="translate(-11.309 -11.307)" fill="#0060af"/>
        <path id="Path_92" data-name="Path 92" d="M83.757,54.657a29.1,29.1,0,1,1-29.1-29.1,29.1,29.1,0,0,1,29.1,29.1" transform="translate(-22.657 -22.657)" fill="#bdce2f"/>
        <path id="Path_93" data-name="Path 93" d="M124.164,55.754l0-1.6-.936.8v0L102.911,72.225v.018l-.087.074V93h.023v1.1h40.571v-1.1l.064-20.769Z" transform="translate(-91.158 -48.012)" fill="#fff8b3"/>
        <path id="Path_94" data-name="Path 94" d="M142.487,92l-18.266,0-.028-18.21h18.294V71.775h-18.3l-.027-17.619L102.824,72.318V93.007h2.015V73.248l17.315-14.738.055,35.5,20.277,0Z" transform="translate(-91.158 -48.012)" fill="#3968b0"/>
        <rect id="Rectangle_136" data-name="Rectangle 136" width="40.811" height="0.102" transform="translate(11.666 46.003)" fill="#bdce2f"/>
        <path id="Path_95" data-name="Path 95" d="M257.939,45.7a3.538,3.538,0,1,1-3.538-3.539,3.538,3.538,0,0,1,3.538,3.539" transform="translate(-222.402 -37.376)" fill="#fff"/>
        <path id="Path_96" data-name="Path 96" d="M256.133,43.594a3.8,3.8,0,1,1-3.8-3.808,3.805,3.805,0,0,1,3.8,3.808" transform="translate(-220.331 -35.272)" fill="#fff"/>
        <path id="Path_97" data-name="Path 97" d="M251.885,47.014a3.864,3.864,0,1,1,3.86-3.864,3.865,3.865,0,0,1-3.86,3.864m0-7.615a3.751,3.751,0,1,0,3.747,3.751,3.752,3.752,0,0,0-3.747-3.751" transform="translate(-219.887 -34.828)" fill="#96999c"/>
        <path id="Path_98" data-name="Path 98" d="M87.6,190.677a3.538,3.538,0,1,1-3.538-3.538,3.538,3.538,0,0,1,3.538,3.538" transform="translate(-71.386 -165.907)" fill="#fff"/>
        <path id="Path_99" data-name="Path 99" d="M87.6,368.912a3.537,3.537,0,1,1-3.538-3.537,3.538,3.538,0,0,1,3.538,3.537" transform="translate(-71.39 -323.921)" fill="#fff"/>
        <path id="Path_100" data-name="Path 100" d="M257.939,190.673a3.538,3.538,0,1,1-3.538-3.538,3.538,3.538,0,0,1,3.538,3.538" transform="translate(-222.402 -165.903)" fill="#fff"/>
        <path id="Path_101" data-name="Path 101" d="M257.939,368.908a3.538,3.538,0,1,1-3.538-3.537,3.538,3.538,0,0,1,3.538,3.537" transform="translate(-222.402 -323.917)" fill="#fff"/>
        <path id="Path_102" data-name="Path 102" d="M428.282,190.682a3.538,3.538,0,1,1-3.537-3.537,3.538,3.538,0,0,1,3.537,3.537" transform="translate(-373.418 -165.912)" fill="#fff"/>
        <path id="Path_103" data-name="Path 103" d="M428.282,368.914a3.538,3.538,0,1,1-3.537-3.537,3.538,3.538,0,0,1,3.537,3.537" transform="translate(-373.418 -323.923)" fill="#fff"/>
        <path id="Path_104" data-name="Path 104" d="M261.73,50.1a2.975,2.975,0,1,1-2.976-2.976A2.975,2.975,0,0,1,261.73,50.1" transform="translate(-226.76 -41.775)" fill="#48ad67"/>
        <path id="Path_105" data-name="Path 105" d="M256.133,188.57a3.8,3.8,0,1,1-3.8-3.808,3.8,3.8,0,0,1,3.8,3.808" transform="translate(-220.331 -163.8)" fill="#fff"/>
        <path id="Path_106" data-name="Path 106" d="M251.885,191.99a3.864,3.864,0,1,1,3.86-3.864,3.865,3.865,0,0,1-3.86,3.864m0-7.615a3.751,3.751,0,1,0,3.747,3.751,3.752,3.752,0,0,0-3.747-3.751" transform="translate(-219.887 -163.356)" fill="#96999c"/>
        <path id="Path_107" data-name="Path 107" d="M261.73,195.073a2.975,2.975,0,1,1-2.975-2.976,2.975,2.975,0,0,1,2.975,2.976" transform="translate(-226.76 -170.302)" fill="#48ad67"/>
        <path id="Path_108" data-name="Path 108" d="M426.5,188.57a3.8,3.8,0,1,1-3.8-3.808,3.8,3.8,0,0,1,3.8,3.808" transform="translate(-371.371 -163.8)" fill="#fff"/>
        <path id="Path_109" data-name="Path 109" d="M422.255,191.99a3.864,3.864,0,1,1,3.86-3.864,3.865,3.865,0,0,1-3.86,3.864m0-7.615A3.751,3.751,0,1,0,426,188.127a3.753,3.753,0,0,0-3.747-3.751" transform="translate(-370.926 -163.356)" fill="#96999c"/>
        <path id="Path_110" data-name="Path 110" d="M432.1,195.073a2.975,2.975,0,1,1-2.975-2.976,2.975,2.975,0,0,1,2.975,2.976" transform="translate(-377.8 -170.302)" fill="#3abcda"/>
        <path id="Path_111" data-name="Path 111" d="M426.5,366.806A3.8,3.8,0,1,1,422.7,363a3.805,3.805,0,0,1,3.8,3.808" transform="translate(-371.371 -321.814)" fill="#fff"/>
        <path id="Path_112" data-name="Path 112" d="M422.255,370.226a3.864,3.864,0,1,1,3.86-3.864,3.866,3.866,0,0,1-3.86,3.864m0-7.615A3.751,3.751,0,1,0,426,366.363a3.753,3.753,0,0,0-3.747-3.751" transform="translate(-370.926 -321.37)" fill="#96999c"/>
        <path id="Path_113" data-name="Path 113" d="M432.1,373.308a2.975,2.975,0,1,1-2.975-2.976,2.975,2.975,0,0,1,2.975,2.976" transform="translate(-377.8 -328.316)" fill="#48ad67"/>
        <path id="Path_114" data-name="Path 114" d="M85.793,188.57a3.8,3.8,0,1,1-3.8-3.808,3.8,3.8,0,0,1,3.8,3.808" transform="translate(-69.317 -163.8)" fill="#fff"/>
        <path id="Path_115" data-name="Path 115" d="M81.546,191.99a3.864,3.864,0,1,1,3.86-3.863,3.865,3.865,0,0,1-3.86,3.863m0-7.615a3.751,3.751,0,1,0,3.746,3.751,3.753,3.753,0,0,0-3.746-3.751" transform="translate(-68.873 -163.356)" fill="#96999c"/>
        <path id="Path_116" data-name="Path 116" d="M91.39,195.071a2.975,2.975,0,1,1-2.976-2.976,2.975,2.975,0,0,1,2.976,2.976" transform="translate(-75.746 -170.301)" fill="#3abcda"/>
        <path id="Path_117" data-name="Path 117" d="M85.793,366.807A3.8,3.8,0,1,1,81.99,363a3.8,3.8,0,0,1,3.8,3.808" transform="translate(-69.317 -321.814)" fill="#fff"/>
        <path id="Path_118" data-name="Path 118" d="M81.546,370.226a3.864,3.864,0,1,1,3.86-3.863,3.865,3.865,0,0,1-3.86,3.863m0-7.615a3.751,3.751,0,1,0,3.746,3.751,3.753,3.753,0,0,0-3.746-3.751" transform="translate(-68.873 -321.37)" fill="#96999c"/>
        <path id="Path_119" data-name="Path 119" d="M91.39,373.308a2.975,2.975,0,1,1-2.976-2.976,2.975,2.975,0,0,1,2.976,2.976" transform="translate(-75.746 -328.316)" fill="#3abcda"/>
        <path id="Path_120" data-name="Path 120" d="M256.09,366.807a3.8,3.8,0,1,1-3.8-3.808,3.8,3.8,0,0,1,3.8,3.808" transform="translate(-220.293 -321.814)" fill="#fff"/>
        <path id="Path_121" data-name="Path 121" d="M251.843,370.226a3.864,3.864,0,1,1,3.86-3.863,3.865,3.865,0,0,1-3.86,3.863m0-7.615a3.751,3.751,0,1,0,3.746,3.751,3.753,3.753,0,0,0-3.746-3.751" transform="translate(-219.849 -321.37)" fill="#96999c"/>
        <path id="Path_122" data-name="Path 122" d="M261.687,373.308a2.975,2.975,0,1,1-2.976-2.976,2.975,2.975,0,0,1,2.976,2.976" transform="translate(-226.722 -328.316)" fill="#48ad67"/>
        <path id="Path_123" data-name="Path 123" d="M160.728,443.442v1.684h-.165a2.745,2.745,0,0,0-.324-.836,1.2,1.2,0,0,0-.489-.4,1.528,1.528,0,0,0-.609-.086h-.467v4.791a1.918,1.918,0,0,0,.054.6.474.474,0,0,0,.208.208.848.848,0,0,0,.421.088h.2v.171h-3.254v-.171h.2a.861.861,0,0,0,.438-.1.428.428,0,0,0,.188-.216,1.9,1.9,0,0,0,.051-.58V443.8h-.45a1.3,1.3,0,0,0-.91.268,1.766,1.766,0,0,0-.506,1.058h-.171v-1.684Z" transform="translate(-137.549 -393.131)" fill="#b38321"/>
        <path id="Path_124" data-name="Path 124" d="M226.725,442.188v2.156h-.176a2.279,2.279,0,0,0-.751-1.292,1.922,1.922,0,0,0-1.246-.45,1.85,1.85,0,0,0-1.067.333,1.924,1.924,0,0,0-.708.874,3.96,3.96,0,0,0-.29,1.542,5.145,5.145,0,0,0,.21,1.516,2.014,2.014,0,0,0,.66,1.036,1.834,1.834,0,0,0,1.161.35,2.285,2.285,0,0,0,1.075-.256,3.7,3.7,0,0,0,1.03-.882v.535a3.393,3.393,0,0,1-1.09.791,3.316,3.316,0,0,1-1.323.245,3.781,3.781,0,0,1-1.761-.4,2.823,2.823,0,0,1-1.192-1.146,3.191,3.191,0,0,1-.421-1.59,3.4,3.4,0,0,1,1.721-2.922,3.389,3.389,0,0,1,1.681-.441,3.8,3.8,0,0,1,1.382.285,2.126,2.126,0,0,0,.535.165.345.345,0,0,0,.253-.105.6.6,0,0,0,.139-.344Z" transform="translate(-195.781 -392.019)" fill="#b38321"/>
        <path id="Path_125" data-name="Path 125" d="M295.756,442.188l.051,2.071h-.188a2.1,2.1,0,0,0-.651-1.252,1.646,1.646,0,0,0-1.124-.472,1.052,1.052,0,0,0-.74.25.76.76,0,0,0-.273.575.688.688,0,0,0,.1.364,1.51,1.51,0,0,0,.427.427,9.116,9.116,0,0,0,.99.535,4.407,4.407,0,0,1,1.474,1.013,1.721,1.721,0,0,1,.375,1.093,1.763,1.763,0,0,1-.606,1.34,2.186,2.186,0,0,1-1.545.56,2.479,2.479,0,0,1-.552-.06,4.181,4.181,0,0,1-.654-.225,1.011,1.011,0,0,0-.364-.091.441.441,0,0,0-.25.091.662.662,0,0,0-.216.279h-.171v-2.344h.171a2.692,2.692,0,0,0,.78,1.508,1.815,1.815,0,0,0,1.234.518,1.172,1.172,0,0,0,.819-.279.852.852,0,0,0,.307-.649.836.836,0,0,0-.119-.427,1.412,1.412,0,0,0-.356-.39,5.449,5.449,0,0,0-.839-.486,7.291,7.291,0,0,1-1.221-.708,2.169,2.169,0,0,1-.572-.654,1.629,1.629,0,0,1-.2-.8,1.687,1.687,0,0,1,.546-1.263,1.9,1.9,0,0,1,1.371-.523,2.278,2.278,0,0,1,.586.074,3.116,3.116,0,0,1,.526.2,1.245,1.245,0,0,0,.435.148.248.248,0,0,0,.188-.071.82.82,0,0,0,.125-.356Z" transform="translate(-258.725 -392.019)" fill="#b38321"/>
        <path id="Path_126" data-name="Path 126" d="M349.555,446.361a3.149,3.149,0,0,1,1.246.5,1.327,1.327,0,0,1,.512,1.081,1.437,1.437,0,0,1-.563,1.161,3.176,3.176,0,0,1-2.014.552h-3.152v-.171a1.42,1.42,0,0,0,.58-.08.47.47,0,0,0,.216-.208,1.889,1.889,0,0,0,.063-.634v-4.028a1.89,1.89,0,0,0-.062-.634.468.468,0,0,0-.219-.208,1.422,1.422,0,0,0-.577-.08v-.171h2.975a4.229,4.229,0,0,1,1.511.19,1.571,1.571,0,0,1,.7.569,1.412,1.412,0,0,1,.256.805,1.138,1.138,0,0,1-.327.8,2.343,2.343,0,0,1-1.146.555m-1.667-.125a2.384,2.384,0,0,0,.961-.145,1.09,1.09,0,0,0,.472-.41,1.484,1.484,0,0,0,0-1.354,1.024,1.024,0,0,0-.464-.4,2.481,2.481,0,0,0-.973-.131Zm0,.358v2.224a.44.44,0,0,0,.495.5,1.429,1.429,0,0,0,.677-.162,1.115,1.115,0,0,0,.472-.469,1.432,1.432,0,0,0,.165-.688,1.519,1.519,0,0,0-.2-.782,1.1,1.1,0,0,0-.552-.483,2.944,2.944,0,0,0-1.055-.134" transform="translate(-306.375 -393.131)" fill="#b38321"/>
      </g>
    </g>
  </g>
</svg>
