<svg xmlns="http://www.w3.org/2000/svg" width="360" height="34" viewBox="0 0 360 34">
  <path id="top-bg" d="M360,188H0V155.194a8.394,8.394,0,0,0,3.657,5.937,40.62,40.62,0,0,0,10.488,5.651c9.066,3.585,22.045,6.8,38.575,9.569,34,5.685,79.2,8.817,127.28,8.817s93.282-3.132,127.279-8.817c16.531-2.762,29.509-5.984,38.575-9.569a40.62,40.62,0,0,0,10.488-5.651A8.4,8.4,0,0,0,360,155.2ZM0,154.932H0V154H.11a5.316,5.316,0,0,0-.11.932Zm360-.007h0a5.309,5.309,0,0,0-.11-.925H360Z" transform="translate(0 -154)" fill="#fff"/>
</svg>
